<svg width="29" height="29" viewBox="0 0 29 29" fill="none" xmlns="http://www.w3.org/2000/svg">
<path d="M27.04 12.7262L15.4763 1.14874C15.3478 1.02131 15.1954 0.920483 15.0279 0.852057C14.8604 0.783631 14.681 0.748946 14.5 0.749992H2.12502C1.76035 0.749992 1.41061 0.894858 1.15275 1.15272C0.894889 1.41058 0.750023 1.76032 0.750023 2.12499V14.5C0.748977 14.681 0.783661 14.8603 0.852088 15.0279C0.920514 15.1954 1.02134 15.3478 1.14877 15.4762L12.7263 27.04C13.4997 27.8125 14.5481 28.2464 15.6413 28.2464C16.7344 28.2464 17.7828 27.8125 18.5563 27.04L27.04 18.625C27.8125 17.8516 28.2464 16.8031 28.2464 15.71C28.2464 14.6169 27.8125 13.5684 27.04 12.795V12.7262ZM25.1013 16.6037L16.6038 25.0875C16.3461 25.3436 15.9977 25.4873 15.6344 25.4873C15.2711 25.4873 14.9226 25.3436 14.665 25.0875L3.50002 13.9362V3.49999H13.9363L25.1013 14.665C25.2287 14.7935 25.3295 14.9458 25.398 15.1134C25.4664 15.2809 25.5011 15.4603 25.5 15.6412C25.4985 16.002 25.3553 16.3476 25.1013 16.6037Z" fill="#FFFDFD"/>
</svg>
