<svg width="31" height="25" viewBox="0 0 31 25" fill="none" xmlns="http://www.w3.org/2000/svg">
<path d="M15.9125 12.8025C16.6462 12.1674 17.2346 11.382 17.638 10.4994C18.0413 9.61685 18.25 8.65785 18.25 7.6875C18.25 5.86414 17.5257 4.11545 16.2364 2.82614C14.947 1.53683 13.1984 0.8125 11.375 0.8125C9.55164 0.8125 7.80295 1.53683 6.51364 2.82614C5.22433 4.11545 4.5 5.86414 4.5 7.6875C4.49999 8.65785 4.70873 9.61685 5.11205 10.4994C5.51537 11.382 6.10383 12.1674 6.8375 12.8025C4.91269 13.6741 3.27964 15.0816 2.1336 16.8567C0.987556 18.6319 0.377024 20.6996 0.375 22.8125C0.375 23.1772 0.519866 23.5269 0.777728 23.7848C1.03559 24.0426 1.38533 24.1875 1.75 24.1875C2.11467 24.1875 2.46441 24.0426 2.72227 23.7848C2.98013 23.5269 3.125 23.1772 3.125 22.8125C3.125 20.6245 3.99419 18.526 5.54137 16.9789C7.08854 15.4317 9.18696 14.5625 11.375 14.5625C13.563 14.5625 15.6615 15.4317 17.2086 16.9789C18.7558 18.526 19.625 20.6245 19.625 22.8125C19.625 23.1772 19.7699 23.5269 20.0277 23.7848C20.2856 24.0426 20.6353 24.1875 21 24.1875C21.3647 24.1875 21.7144 24.0426 21.9723 23.7848C22.2301 23.5269 22.375 23.1772 22.375 22.8125C22.373 20.6996 21.7624 18.6319 20.6164 16.8567C19.4704 15.0816 17.8373 13.6741 15.9125 12.8025V12.8025ZM11.375 11.8125C10.5592 11.8125 9.76163 11.5706 9.08327 11.1173C8.40492 10.6641 7.87621 10.0198 7.564 9.26607C7.25179 8.51232 7.1701 7.68292 7.32926 6.88275C7.48843 6.08258 7.88129 5.34758 8.45818 4.77068C9.03508 4.19379 9.77008 3.80093 10.5703 3.64176C11.3704 3.4826 12.1998 3.56429 12.9536 3.8765C13.7073 4.18871 14.3516 4.71742 14.8048 5.39577C15.2581 6.07413 15.5 6.87165 15.5 7.6875C15.5 8.78152 15.0654 9.83073 14.2918 10.6043C13.5182 11.3779 12.469 11.8125 11.375 11.8125ZM24.7675 12.2525C25.6475 11.2616 26.2223 10.0375 26.4227 8.72747C26.6232 7.41748 26.4408 6.07748 25.8974 4.86875C25.3541 3.66002 24.473 2.63409 23.3601 1.91446C22.2473 1.19482 20.9502 0.812146 19.625 0.8125C19.2603 0.8125 18.9106 0.957366 18.6527 1.21523C18.3949 1.47309 18.25 1.82283 18.25 2.1875C18.25 2.55217 18.3949 2.90191 18.6527 3.15977C18.9106 3.41763 19.2603 3.5625 19.625 3.5625C20.719 3.5625 21.7682 3.9971 22.5418 4.77068C23.3154 5.54427 23.75 6.59348 23.75 7.6875C23.7481 8.4097 23.5565 9.11874 23.1946 9.7437C22.8326 10.3687 22.313 10.8876 21.6875 11.2488C21.4836 11.3663 21.3134 11.5343 21.193 11.7365C21.0726 11.9387 21.0062 12.1685 21 12.4038C20.9942 12.6372 21.048 12.8682 21.1563 13.0751C21.2645 13.282 21.4237 13.4579 21.6188 13.5862L22.155 13.9438L22.3337 14.04C23.9912 14.8261 25.3894 16.0695 26.3638 17.6237C27.3383 19.1779 27.8483 20.9782 27.8337 22.8125C27.8337 23.1772 27.9786 23.5269 28.2365 23.7848C28.4943 24.0426 28.8441 24.1875 29.2087 24.1875C29.5734 24.1875 29.9232 24.0426 30.181 23.7848C30.4389 23.5269 30.5837 23.1772 30.5837 22.8125C30.595 20.7025 30.0665 18.6246 29.0485 16.7763C28.0305 14.9281 26.5568 13.3708 24.7675 12.2525V12.2525Z" fill="#FFF9F9"/>
</svg>
