<svg width="12" height="12" viewBox="0 0 12 12" fill="none" xmlns="http://www.w3.org/2000/svg">
<path d="M11 5.00019H3.41002L6.71002 1.71019C6.89832 1.52188 7.00411 1.26649 7.00411 1.00019C7.00411 0.733884 6.89832 0.478489 6.71002 0.290185C6.52172 0.101882 6.26632 -0.00390625 6.00002 -0.00390625C5.73372 -0.00390625 5.47832 0.101882 5.29002 0.290185L0.290018 5.29019C0.198978 5.38529 0.127613 5.49743 0.0800184 5.62019C-0.0199996 5.86365 -0.0199996 6.13672 0.0800184 6.38019C0.127613 6.50294 0.198978 6.61508 0.290018 6.71019L5.29002 11.7102C5.38298 11.8039 5.49358 11.8783 5.61544 11.9291C5.7373 11.9798 5.86801 12.006 6.00002 12.006C6.13203 12.006 6.26274 11.9798 6.3846 11.9291C6.50645 11.8783 6.61706 11.8039 6.71002 11.7102C6.80375 11.6172 6.87814 11.5066 6.92891 11.3848C6.97968 11.2629 7.00582 11.1322 7.00582 11.0002C7.00582 10.8682 6.97968 10.7375 6.92891 10.6156C6.87814 10.4937 6.80375 10.3831 6.71002 10.2902L3.41002 7.00019H11C11.2652 7.00019 11.5196 6.89483 11.7071 6.70729C11.8947 6.51976 12 6.2654 12 6.00019C12 5.73497 11.8947 5.48062 11.7071 5.29308C11.5196 5.10554 11.2652 5.00019 11 5.00019Z" fill="black"/>
</svg>
