<svg width="14" height="16" viewBox="0 0 14 16" fill="none" xmlns="http://www.w3.org/2000/svg">
<path d="M13.925 5.15001V4.85001C13.925 4.75001 13.9 4.65001 13.85 4.57501L11.95 1.22501C11.675 0.750012 11.175 0.450012 10.625 0.450012H3.37501C2.82501 0.450012 2.32501 0.750012 2.05001 1.22501L0.150012 4.57501V4.60001C0.150012 4.62501 0.125012 4.65001 0.125012 4.67501C0.100012 4.72501 0.0750122 4.80001 0.0750122 4.87501V14.075C0.0750122 14.925 0.750012 15.6 1.60001 15.6H12.375C13.225 15.6 13.9 14.925 13.9 14.075L13.925 5.15001ZM6.40001 5.40001C6.30001 5.85001 5.87501 6.17501 5.40001 6.17501C4.92501 6.17501 4.52501 5.85001 4.40001 5.40001H6.40001ZM3.02501 1.77501C3.10001 1.65001 3.22501 1.57501 3.37501 1.57501H10.625C10.775 1.57501 10.9 1.65001 10.975 1.77501L12.375 4.27501H1.62501L3.02501 1.77501ZM12.75 5.40001C12.65 5.85001 12.25 6.17501 11.75 6.17501C11.275 6.17501 10.875 5.85001 10.75 5.40001H12.75ZM9.57501 5.40001C9.47501 5.85001 9.07501 6.17501 8.57501 6.17501C8.07501 6.17501 7.70001 5.85001 7.57501 5.40001H9.57501ZM3.22501 5.40001C3.12501 5.85001 2.72501 6.17501 2.22501 6.17501C1.75001 6.17501 1.35001 5.85001 1.22501 5.40001H3.22501ZM3.75001 14.45V10.575C3.75001 10.525 3.80001 10.475 3.85001 10.475H5.05001C5.10001 10.475 5.15001 10.525 5.15001 10.575V14.425H3.75001V14.45ZM12.4 14.45H6.30001V10.575C6.30001 9.90001 5.75001 9.35001 5.07501 9.35001H3.87501C3.20001 9.35001 2.65001 9.90001 2.65001 10.575V14.425H1.62501C1.40001 14.425 1.22501 14.25 1.22501 14.025V7.02501C1.52501 7.20001 1.87501 7.27501 2.25001 7.27501C2.87501 7.27501 3.45001 7.00001 3.85001 6.57501C4.25001 7.00001 4.80001 7.27501 5.45001 7.27501C6.07501 7.27501 6.65001 7.00001 7.05001 6.57501C7.45001 7.00001 8.00001 7.27501 8.65001 7.27501C9.27501 7.27501 9.85001 7.00001 10.25 6.57501C10.65 7.00001 11.2 7.27501 11.85 7.27501C12.225 7.27501 12.575 7.17501 12.875 7.02501V14.025C12.8 14.25 12.6 14.45 12.4 14.45Z" fill="black"/>
</svg>
