<svg width="21" height="20" viewBox="0 0 21 20" fill="none" xmlns="http://www.w3.org/2000/svg">
<path d="M9.99994 5.99994C9.20881 5.99994 8.43546 6.23454 7.77766 6.67406C7.11986 7.11359 6.60717 7.7383 6.30442 8.4692C6.00167 9.20011 5.92246 10.0044 6.0768 10.7803C6.23114 11.5562 6.6121 12.269 7.17151 12.8284C7.73092 13.3878 8.44365 13.7687 9.21958 13.9231C9.9955 14.0774 10.7998 13.9982 11.5307 13.6955C12.2616 13.3927 12.8863 12.88 13.3258 12.2222C13.7653 11.5644 13.9999 10.7911 13.9999 9.99994C13.9999 8.93907 13.5785 7.92166 12.8284 7.17151C12.0782 6.42137 11.0608 5.99994 9.99994 5.99994ZM9.99994 11.9999C9.60438 11.9999 9.2177 11.8826 8.8888 11.6629C8.5599 11.4431 8.30355 11.1308 8.15218 10.7653C8.0008 10.3999 7.9612 9.99772 8.03837 9.60976C8.11554 9.2218 8.30602 8.86543 8.58573 8.58573C8.86543 8.30602 9.2218 8.11554 9.60976 8.03837C9.99772 7.9612 10.3999 8.0008 10.7653 8.15218C11.1308 8.30355 11.4431 8.5599 11.6629 8.8888C11.8826 9.2177 11.9999 9.60438 11.9999 9.99994C11.9999 10.5304 11.7892 11.0391 11.4142 11.4142C11.0391 11.7892 10.5304 11.9999 9.99994 11.9999ZM19.7099 9.28994L17.3599 6.99994V3.63994C17.3599 3.37472 17.2546 3.12037 17.067 2.93283C16.8795 2.7453 16.6252 2.63994 16.3599 2.63994H13.0499L10.7099 0.289939C10.617 0.196211 10.5064 0.121816 10.3845 0.0710475C10.2627 0.0202789 10.132 -0.00585938 9.99994 -0.00585938C9.86793 -0.00585938 9.73722 0.0202789 9.61536 0.0710475C9.4935 0.121816 9.3829 0.196211 9.28994 0.289939L6.99994 2.63994H3.63994C3.37472 2.63994 3.12037 2.7453 2.93283 2.93283C2.7453 3.12037 2.63994 3.37472 2.63994 3.63994V6.99994L0.289939 9.28994C0.196211 9.3829 0.121816 9.4935 0.0710475 9.61536C0.0202789 9.73722 -0.00585938 9.86793 -0.00585938 9.99994C-0.00585938 10.132 0.0202789 10.2627 0.0710475 10.3845C0.121816 10.5064 0.196211 10.617 0.289939 10.7099L2.63994 13.0499V16.3599C2.63994 16.6252 2.7453 16.8795 2.93283 17.067C3.12037 17.2546 3.37472 17.3599 3.63994 17.3599H6.99994L9.33994 19.7099C9.4329 19.8037 9.5435 19.8781 9.66536 19.9288C9.78722 19.9796 9.91793 20.0057 10.0499 20.0057C10.182 20.0057 10.3127 19.9796 10.4345 19.9288C10.5564 19.8781 10.667 19.8037 10.7599 19.7099L13.0999 17.3599H16.4099C16.6752 17.3599 16.9295 17.2546 17.117 17.067C17.3046 16.8795 17.4099 16.6252 17.4099 16.3599V13.0499L19.7599 10.7099C19.8505 10.6137 19.921 10.5005 19.9676 10.3769C20.0141 10.2532 20.0356 10.1215 20.031 9.98951C20.0264 9.85748 19.9956 9.72767 19.9405 9.6076C19.8854 9.48752 19.807 9.37956 19.7099 9.28994ZM15.6599 11.9299C15.5655 12.0226 15.4903 12.133 15.4388 12.2549C15.3873 12.3767 15.3605 12.5076 15.3599 12.6399V15.3599H12.6399C12.5076 15.3605 12.3767 15.3873 12.2549 15.4388C12.133 15.4903 12.0226 15.5655 11.9299 15.6599L9.99994 17.5899L8.06994 15.6599C7.97732 15.5655 7.86688 15.4903 7.745 15.4388C7.62313 15.3873 7.49225 15.3605 7.35994 15.3599H4.63994V12.6399C4.63939 12.5076 4.61259 12.3767 4.56109 12.2549C4.5096 12.133 4.43443 12.0226 4.33994 11.9299L2.40994 9.99994L4.33994 8.06994C4.43443 7.97732 4.5096 7.86688 4.56109 7.745C4.61259 7.62313 4.63939 7.49225 4.63994 7.35994V4.63994H7.35994C7.49225 4.63939 7.62313 4.61259 7.745 4.56109C7.86688 4.5096 7.97732 4.43443 8.06994 4.33994L9.99994 2.40994L11.9299 4.33994C12.0226 4.43443 12.133 4.5096 12.2549 4.56109C12.3767 4.61259 12.5076 4.63939 12.6399 4.63994H15.3599V7.35994C15.3605 7.49225 15.3873 7.62313 15.4388 7.745C15.4903 7.86688 15.5655 7.97732 15.6599 8.06994L17.5899 9.99994L15.6599 11.9299Z" fill="black"/>
</svg>
