<svg width="16" height="20" viewBox="0 0 16 20" fill="none" xmlns="http://www.w3.org/2000/svg">
<path d="M15.61 14C15.5556 13.8785 15.4813 13.7669 15.39 13.67L10.76 9C10.5687 8.83617 10.3226 8.75057 10.071 8.76029C9.81928 8.77001 9.58054 8.87434 9.40244 9.05244C9.22435 9.23053 9.12001 9.46927 9.11029 9.72095C9.10057 9.97262 9.18618 10.2187 9.35 10.41L12.27 13.33H5.27C4.47436 13.33 3.71129 13.0139 3.14868 12.4513C2.58607 11.8887 2.27 11.1256 2.27 10.33V1C2.27 0.734784 2.16465 0.48043 1.97711 0.292893C1.78957 0.105357 1.53522 0 1.27 0C1.00479 0 0.750434 0.105357 0.562898 0.292893C0.375361 0.48043 0.270004 0.734784 0.270004 1V10.37C0.270004 11.6961 0.796788 12.9679 1.73447 13.9055C2.67215 14.8432 3.94392 15.37 5.27 15.37H12.27L9.35 18.29C9.25628 18.383 9.18188 18.4936 9.13111 18.6154C9.08034 18.7373 9.05421 18.868 9.05421 19C9.05421 19.132 9.08034 19.2627 9.13111 19.3846C9.18188 19.5064 9.25628 19.617 9.35 19.71C9.44344 19.8027 9.55426 19.876 9.6761 19.9258C9.79794 19.9755 9.9284 20.0008 10.06 20C10.3223 19.9989 10.5737 19.8947 10.76 19.71L15.39 15.08C15.4846 14.9858 15.5594 14.8736 15.61 14.75C15.7073 14.5095 15.7073 14.2405 15.61 14Z" fill="#FFFBFB"/>
</svg>
